<svg width="46" height="46" viewBox="0 0 46 46" fill="none" xmlns="http://www.w3.org/2000/svg">
<mask id="mask0_15_92" style="mask-type:alpha" maskUnits="userSpaceOnUse" x="0" y="0" width="46" height="46">
<rect width="46" height="46" fill="#D9D9D9"/>
</mask>
<g mask="url(#mask0_15_92)">
<path d="M36.9916 17.0585L43.125 23.1918L40.4417 25.8752L34.3083 19.7418C33.6375 20.1252 32.9187 20.4446 32.1521 20.7002C31.3854 20.9557 30.5708 21.0835 29.7083 21.0835C27.3125 21.0835 25.276 20.245 23.5989 18.5679C21.9219 16.8908 21.0833 14.8543 21.0833 12.4585C21.0833 10.0627 21.9219 8.0262 23.5989 6.34912C25.276 4.67204 27.3125 3.8335 29.7083 3.8335C32.1041 3.8335 34.1406 4.67204 35.8177 6.34912C37.4948 8.0262 38.3333 10.0627 38.3333 12.4585C38.3333 13.321 38.2055 14.1356 37.95 14.9022C37.6944 15.6689 37.375 16.3877 36.9916 17.0585ZM29.7083 17.2502C31.05 17.2502 32.184 16.787 33.1104 15.8606C34.0368 14.9342 34.5 13.8002 34.5 12.4585C34.5 11.1168 34.0368 9.9828 33.1104 9.05641C32.184 8.13002 31.05 7.66683 29.7083 7.66683C28.3666 7.66683 27.2326 8.13002 26.3062 9.05641C25.3798 9.9828 24.9166 11.1168 24.9166 12.4585C24.9166 13.8002 25.3798 14.9342 26.3062 15.8606C27.2326 16.787 28.3666 17.2502 29.7083 17.2502ZM7.66665 42.1668C6.61248 42.1668 5.71005 41.7915 4.95935 41.0408C4.20866 40.2901 3.83331 39.3877 3.83331 38.3335V11.5002C3.83331 10.446 4.20866 9.54357 4.95935 8.79287C5.71005 8.04218 6.61248 7.66683 7.66665 7.66683H18.2083C17.8569 8.46544 17.6173 9.28801 17.4896 10.1345C17.3618 10.9811 17.2979 11.8196 17.2979 12.6502C17.2979 16.1321 18.5278 19.0391 20.9875 21.371C23.4472 23.7029 26.3701 24.8689 29.7562 24.8689C30.3632 24.8689 30.9701 24.829 31.5771 24.7491C32.184 24.6693 32.8069 24.5335 33.4458 24.3418L38.3333 29.2293V38.3335C38.3333 39.3877 37.958 40.2901 37.2073 41.0408C36.4566 41.7915 35.5541 42.1668 34.5 42.1668H7.66665Z" fill="url(#paint0_linear_15_92)"/>
</g>
<defs>
<linearGradient id="paint0_linear_15_92" x1="43.125" y1="37.5313" x2="3.83331" y2="37.5313" gradientUnits="userSpaceOnUse">
<stop stop-color="#F0B71F"/>
<stop offset="1" stop-color="#E03609"/>
</linearGradient>
</defs>
</svg>
